<?xml version="1.0" encoding="UTF-8"?>
<svg id="Layer_1" data-name="Layer 1" xmlns="http://www.w3.org/2000/svg" viewBox="0 0 106.77 127.52">
  <defs>
    <style>
      .cls-1 {
        fill: #1c5956;
      }

      .cls-2 {
        fill: #2b7a78;
      }

      .cls-3 {
        fill: #36918a;
      }
    </style>
  </defs>
  <path class="cls-3" d="M95.11,84.3L24.01,125.35c-10.67,6.16-24.01-1.54-24.01-13.86V29.39C0,19.8,8.08,13.01,16.7,13.37c2.45.11,4.95.79,7.31,2.16l71.1,41.05c2.77,1.6,4.83,3.83,6.15,6.35,3.79,7.19,1.74,16.81-6.15,21.37Z"/>
  <path class="cls-1" d="M101.26,62.93l-61.99,35.79c-10.03,5.79-22.58-1.45-22.58-13.03V13.37c2.45.11,4.95.79,7.31,2.16l71.1,41.05c2.77,1.6,4.83,3.83,6.15,6.35Z"/>
  <path class="cls-2" d="M100.16,58.52l-58.65,33.86c-8.8,5.08-19.81-1.27-19.81-11.44V13.22c0-10.17,11-16.52,19.81-11.44l58.65,33.86c8.8,5.08,8.8,17.79,0,22.87Z"/>
</svg>